<mxfile host="app.diagrams.net" agent="Mozilla/5.0 (Windows NT 10.0; Win64; x64) AppleWebKit/537.36 (KHTML, like Gecko) Chrome/131.0.0.0 Safari/537.36" version="26.2.15">
  <diagram name="第 1 页" id="31zuN9qVaKqaHp3xW60k">
    <mxGraphModel dx="1188" dy="726" grid="1" gridSize="10" guides="1" tooltips="1" connect="1" arrows="1" fold="1" page="1" pageScale="1" pageWidth="827" pageHeight="1169" math="0" shadow="0">
      <root>
        <mxCell id="0" />
        <mxCell id="1" parent="0" />
        <mxCell id="TAhkKV8d_4ss1AZkdmYo-13" value="" style="rounded=0;whiteSpace=wrap;html=1;fillColor=#FFE599;" vertex="1" parent="1">
          <mxGeometry x="530" y="170" width="200" height="450" as="geometry" />
        </mxCell>
        <mxCell id="TAhkKV8d_4ss1AZkdmYo-2" value="" style="rounded=0;whiteSpace=wrap;html=1;fillColor=#99CCFF;" vertex="1" parent="1">
          <mxGeometry x="240" y="170" width="200" height="450" as="geometry" />
        </mxCell>
        <mxCell id="TAhkKV8d_4ss1AZkdmYo-1" value="&lt;h3 style=&quot;font-weight: var(--ds-font-weight-strong); font-size: calc(var(--ds-md-zoom)*16px); line-height: 1.5; margin: calc(var(--ds-md-zoom)*16px)0 calc(var(--ds-md-zoom)*12px)0; color: rgb(64, 64, 64); font-family: DeepSeek-CJK-patch, Inter, system-ui, -apple-system, BlinkMacSystemFont, &amp;quot;Segoe UI&amp;quot;, Roboto, &amp;quot;Noto Sans&amp;quot;, Ubuntu, Cantarell, &amp;quot;Helvetica Neue&amp;quot;, Oxygen, &amp;quot;Open Sans&amp;quot;, sans-serif; font-style: normal; font-variant-ligatures: normal; font-variant-caps: normal; letter-spacing: normal; orphans: 2; text-align: start; text-indent: 0px; text-transform: none; widows: 2; word-spacing: 0px; -webkit-text-stroke-width: 0px; white-space: normal; text-decoration-thickness: initial; text-decoration-style: initial; text-decoration-color: initial;&quot;&gt;&lt;strong style=&quot;background-color: rgb(153, 204, 255);&quot;&gt;双流特征提取&lt;/strong&gt;&lt;/h3&gt;" style="text;whiteSpace=wrap;html=1;fillColor=#99CCFF;" vertex="1" parent="1">
          <mxGeometry x="243" y="172" width="110" height="40" as="geometry" />
        </mxCell>
        <mxCell id="TAhkKV8d_4ss1AZkdmYo-3" value="周期分支&lt;div&gt;LSTM&lt;/div&gt;" style="rounded=0;whiteSpace=wrap;html=1;fillColor=#FFF4C3;" vertex="1" parent="1">
          <mxGeometry x="280" y="230" width="120" height="60" as="geometry" />
        </mxCell>
        <mxCell id="TAhkKV8d_4ss1AZkdmYo-4" value="" style="rounded=0;whiteSpace=wrap;html=1;fillColor=#FFCC99;" vertex="1" parent="1">
          <mxGeometry x="280" y="325" width="120" height="260" as="geometry" />
        </mxCell>
        <mxCell id="TAhkKV8d_4ss1AZkdmYo-11" style="edgeStyle=orthogonalEdgeStyle;rounded=0;orthogonalLoop=1;jettySize=auto;html=1;exitX=0.5;exitY=1;exitDx=0;exitDy=0;entryX=0.5;entryY=0;entryDx=0;entryDy=0;" edge="1" parent="1" source="TAhkKV8d_4ss1AZkdmYo-5" target="TAhkKV8d_4ss1AZkdmYo-6">
          <mxGeometry relative="1" as="geometry" />
        </mxCell>
        <mxCell id="TAhkKV8d_4ss1AZkdmYo-5" value="LSTM)" style="rounded=0;whiteSpace=wrap;html=1;fillColor=#FFF4C3;" vertex="1" parent="1">
          <mxGeometry x="300" y="378" width="80" height="60" as="geometry" />
        </mxCell>
        <mxCell id="TAhkKV8d_4ss1AZkdmYo-24" style="edgeStyle=orthogonalEdgeStyle;rounded=0;orthogonalLoop=1;jettySize=auto;html=1;exitX=0.5;exitY=1;exitDx=0;exitDy=0;entryX=0.5;entryY=0;entryDx=0;entryDy=0;" edge="1" parent="1" source="TAhkKV8d_4ss1AZkdmYo-6" target="TAhkKV8d_4ss1AZkdmYo-22">
          <mxGeometry relative="1" as="geometry" />
        </mxCell>
        <mxCell id="TAhkKV8d_4ss1AZkdmYo-6" value="LSTM" style="rounded=0;whiteSpace=wrap;html=1;fillColor=#FFF4C3;" vertex="1" parent="1">
          <mxGeometry x="300" y="464" width="80" height="60" as="geometry" />
        </mxCell>
        <mxCell id="TAhkKV8d_4ss1AZkdmYo-9" style="edgeStyle=orthogonalEdgeStyle;rounded=0;orthogonalLoop=1;jettySize=auto;html=1;exitX=1;exitY=0.5;exitDx=0;exitDy=0;entryX=0;entryY=0.5;entryDx=0;entryDy=0;" edge="1" parent="1" source="TAhkKV8d_4ss1AZkdmYo-8" target="TAhkKV8d_4ss1AZkdmYo-3">
          <mxGeometry relative="1" as="geometry" />
        </mxCell>
        <mxCell id="TAhkKV8d_4ss1AZkdmYo-10" style="edgeStyle=orthogonalEdgeStyle;rounded=0;orthogonalLoop=1;jettySize=auto;html=1;exitX=1;exitY=0.5;exitDx=0;exitDy=0;entryX=0;entryY=0.5;entryDx=0;entryDy=0;" edge="1" parent="1" source="TAhkKV8d_4ss1AZkdmYo-8" target="TAhkKV8d_4ss1AZkdmYo-5">
          <mxGeometry relative="1" as="geometry" />
        </mxCell>
        <mxCell id="TAhkKV8d_4ss1AZkdmYo-28" style="edgeStyle=orthogonalEdgeStyle;rounded=0;orthogonalLoop=1;jettySize=auto;html=1;exitX=1;exitY=0.5;exitDx=0;exitDy=0;entryX=0;entryY=0.5;entryDx=0;entryDy=0;" edge="1" parent="1" source="TAhkKV8d_4ss1AZkdmYo-8" target="TAhkKV8d_4ss1AZkdmYo-22">
          <mxGeometry relative="1" as="geometry">
            <Array as="points">
              <mxPoint x="220" y="408" />
              <mxPoint x="220" y="565" />
            </Array>
          </mxGeometry>
        </mxCell>
        <mxCell id="TAhkKV8d_4ss1AZkdmYo-8" value="输入x" style="rounded=0;whiteSpace=wrap;html=1;fillColor=#FFF4C3;" vertex="1" parent="1">
          <mxGeometry x="40" y="378" width="120" height="60" as="geometry" />
        </mxCell>
        <mxCell id="TAhkKV8d_4ss1AZkdmYo-14" value="&lt;h3 style=&quot;font-weight: var(--ds-font-weight-strong); font-size: calc(var(--ds-md-zoom)*16px); line-height: 1.5; margin: calc(var(--ds-md-zoom)*16px)0 calc(var(--ds-md-zoom)*12px)0; color: rgb(64, 64, 64); font-family: DeepSeek-CJK-patch, Inter, system-ui, -apple-system, BlinkMacSystemFont, &amp;quot;Segoe UI&amp;quot;, Roboto, &amp;quot;Noto Sans&amp;quot;, Ubuntu, Cantarell, &amp;quot;Helvetica Neue&amp;quot;, Oxygen, &amp;quot;Open Sans&amp;quot;, sans-serif; font-style: normal; font-variant-ligatures: normal; font-variant-caps: normal; letter-spacing: normal; orphans: 2; text-align: start; text-indent: 0px; text-transform: none; widows: 2; word-spacing: 0px; -webkit-text-stroke-width: 0px; white-space: normal; text-decoration-thickness: initial; text-decoration-style: initial; text-decoration-color: initial;&quot;&gt;&lt;strong style=&quot;background-color: rgb(255, 244, 195);&quot;&gt;动态门控融合&lt;/strong&gt;&lt;/h3&gt;" style="text;whiteSpace=wrap;html=1;" vertex="1" parent="1">
          <mxGeometry x="533" y="171" width="110" height="40" as="geometry" />
        </mxCell>
        <mxCell id="TAhkKV8d_4ss1AZkdmYo-40" style="edgeStyle=orthogonalEdgeStyle;rounded=0;orthogonalLoop=1;jettySize=auto;html=1;exitX=1;exitY=0.5;exitDx=0;exitDy=0;entryX=0;entryY=0.5;entryDx=0;entryDy=0;" edge="1" parent="1" source="TAhkKV8d_4ss1AZkdmYo-22" target="TAhkKV8d_4ss1AZkdmYo-38">
          <mxGeometry relative="1" as="geometry">
            <Array as="points">
              <mxPoint x="500" y="565" />
              <mxPoint x="500" y="350" />
            </Array>
          </mxGeometry>
        </mxCell>
        <mxCell id="TAhkKV8d_4ss1AZkdmYo-41" value="hb" style="edgeLabel;html=1;align=center;verticalAlign=middle;resizable=0;points=[];" vertex="1" connectable="0" parent="TAhkKV8d_4ss1AZkdmYo-40">
          <mxGeometry x="-0.64" y="2" relative="1" as="geometry">
            <mxPoint x="25" y="2" as="offset" />
          </mxGeometry>
        </mxCell>
        <mxCell id="TAhkKV8d_4ss1AZkdmYo-22" value="" style="shape=orEllipse;perimeter=ellipsePerimeter;whiteSpace=wrap;html=1;backgroundOutline=1;" vertex="1" parent="1">
          <mxGeometry x="325" y="550" width="30" height="30" as="geometry" />
        </mxCell>
        <mxCell id="TAhkKV8d_4ss1AZkdmYo-29" value="突发分支" style="rounded=0;whiteSpace=wrap;html=1;fillColor=#FFF4C3;" vertex="1" parent="1">
          <mxGeometry x="280" y="325" width="76" height="30" as="geometry" />
        </mxCell>
        <mxCell id="TAhkKV8d_4ss1AZkdmYo-45" style="edgeStyle=orthogonalEdgeStyle;rounded=0;orthogonalLoop=1;jettySize=auto;html=1;exitX=1;exitY=0.5;exitDx=0;exitDy=0;entryX=1;entryY=0.5;entryDx=0;entryDy=0;" edge="1" parent="1" source="TAhkKV8d_4ss1AZkdmYo-32" target="TAhkKV8d_4ss1AZkdmYo-43">
          <mxGeometry relative="1" as="geometry">
            <Array as="points">
              <mxPoint x="680" y="300" />
              <mxPoint x="680" y="408" />
            </Array>
          </mxGeometry>
        </mxCell>
        <mxCell id="TAhkKV8d_4ss1AZkdmYo-32" value="zp= wphp+bp" style="rounded=0;whiteSpace=wrap;html=1;fillColor=#FFCC99;" vertex="1" parent="1">
          <mxGeometry x="590" y="280" width="80" height="40" as="geometry" />
        </mxCell>
        <mxCell id="TAhkKV8d_4ss1AZkdmYo-34" value="" style="rounded=0;whiteSpace=wrap;html=1;fillColor=#B9E0A5;" vertex="1" parent="1">
          <mxGeometry x="810" y="172" width="200" height="450" as="geometry" />
        </mxCell>
        <mxCell id="TAhkKV8d_4ss1AZkdmYo-35" value="&lt;h3 style=&quot;font-weight: var(--ds-font-weight-strong); font-size: calc(var(--ds-md-zoom)*16px); line-height: 1.5; margin: calc(var(--ds-md-zoom)*16px)0 calc(var(--ds-md-zoom)*12px)0; color: rgb(64, 64, 64); font-family: DeepSeek-CJK-patch, Inter, system-ui, -apple-system, BlinkMacSystemFont, &amp;quot;Segoe UI&amp;quot;, Roboto, &amp;quot;Noto Sans&amp;quot;, Ubuntu, Cantarell, &amp;quot;Helvetica Neue&amp;quot;, Oxygen, &amp;quot;Open Sans&amp;quot;, sans-serif; font-style: normal; font-variant-ligatures: normal; font-variant-caps: normal; letter-spacing: normal; orphans: 2; text-align: start; text-indent: 0px; text-transform: none; widows: 2; word-spacing: 0px; -webkit-text-stroke-width: 0px; white-space: normal; text-decoration-thickness: initial; text-decoration-style: initial; text-decoration-color: initial;&quot;&gt;&lt;strong style=&quot;background-color: rgb(185, 224, 165);&quot;&gt;特征合成&lt;/strong&gt;&lt;/h3&gt;" style="text;whiteSpace=wrap;html=1;" vertex="1" parent="1">
          <mxGeometry x="820" y="172" width="110" height="40" as="geometry" />
        </mxCell>
        <mxCell id="TAhkKV8d_4ss1AZkdmYo-62" style="edgeStyle=orthogonalEdgeStyle;rounded=0;orthogonalLoop=1;jettySize=auto;html=1;exitX=1;exitY=0.5;exitDx=0;exitDy=0;entryX=1;entryY=0.5;entryDx=0;entryDy=0;" edge="1" parent="1" source="TAhkKV8d_4ss1AZkdmYo-36" target="TAhkKV8d_4ss1AZkdmYo-60">
          <mxGeometry relative="1" as="geometry" />
        </mxCell>
        <mxCell id="TAhkKV8d_4ss1AZkdmYo-36" value="z0=G*zp+(1-G)*zb" style="rounded=0;whiteSpace=wrap;html=1;fillColor=#FFCC99;" vertex="1" parent="1">
          <mxGeometry x="835" y="275" width="125" height="62" as="geometry" />
        </mxCell>
        <mxCell id="TAhkKV8d_4ss1AZkdmYo-44" style="edgeStyle=orthogonalEdgeStyle;rounded=0;orthogonalLoop=1;jettySize=auto;html=1;exitX=0.5;exitY=1;exitDx=0;exitDy=0;entryX=0.5;entryY=0;entryDx=0;entryDy=0;" edge="1" parent="1" source="TAhkKV8d_4ss1AZkdmYo-38" target="TAhkKV8d_4ss1AZkdmYo-43">
          <mxGeometry relative="1" as="geometry" />
        </mxCell>
        <mxCell id="TAhkKV8d_4ss1AZkdmYo-56" style="edgeStyle=orthogonalEdgeStyle;rounded=0;orthogonalLoop=1;jettySize=auto;html=1;exitX=1;exitY=0.5;exitDx=0;exitDy=0;entryX=0;entryY=0.5;entryDx=0;entryDy=0;" edge="1" parent="1" source="TAhkKV8d_4ss1AZkdmYo-38" target="TAhkKV8d_4ss1AZkdmYo-36">
          <mxGeometry relative="1" as="geometry" />
        </mxCell>
        <mxCell id="TAhkKV8d_4ss1AZkdmYo-38" value="zb= wbhb+bb" style="rounded=0;whiteSpace=wrap;html=1;fillColor=#FFCC99;" vertex="1" parent="1">
          <mxGeometry x="590" y="330" width="80" height="40" as="geometry" />
        </mxCell>
        <mxCell id="TAhkKV8d_4ss1AZkdmYo-39" style="edgeStyle=orthogonalEdgeStyle;rounded=0;orthogonalLoop=1;jettySize=auto;html=1;exitX=1;exitY=0.5;exitDx=0;exitDy=0;entryX=0;entryY=0.5;entryDx=0;entryDy=0;" edge="1" parent="1" source="TAhkKV8d_4ss1AZkdmYo-3" target="TAhkKV8d_4ss1AZkdmYo-32">
          <mxGeometry relative="1" as="geometry" />
        </mxCell>
        <mxCell id="TAhkKV8d_4ss1AZkdmYo-42" value="hp" style="edgeLabel;html=1;align=center;verticalAlign=middle;resizable=0;points=[];" vertex="1" connectable="0" parent="TAhkKV8d_4ss1AZkdmYo-39">
          <mxGeometry x="-0.4696" y="-3" relative="1" as="geometry">
            <mxPoint y="-3" as="offset" />
          </mxGeometry>
        </mxCell>
        <mxCell id="TAhkKV8d_4ss1AZkdmYo-49" style="edgeStyle=orthogonalEdgeStyle;rounded=0;orthogonalLoop=1;jettySize=auto;html=1;exitX=0.5;exitY=1;exitDx=0;exitDy=0;entryX=0.5;entryY=0;entryDx=0;entryDy=0;" edge="1" parent="1" source="TAhkKV8d_4ss1AZkdmYo-43" target="TAhkKV8d_4ss1AZkdmYo-46">
          <mxGeometry relative="1" as="geometry" />
        </mxCell>
        <mxCell id="TAhkKV8d_4ss1AZkdmYo-43" value="zp||zb" style="rounded=0;whiteSpace=wrap;html=1;fillColor=#FFCC99;" vertex="1" parent="1">
          <mxGeometry x="590" y="388" width="80" height="40" as="geometry" />
        </mxCell>
        <mxCell id="TAhkKV8d_4ss1AZkdmYo-51" style="edgeStyle=orthogonalEdgeStyle;rounded=0;orthogonalLoop=1;jettySize=auto;html=1;exitX=0.5;exitY=1;exitDx=0;exitDy=0;entryX=0.5;entryY=0;entryDx=0;entryDy=0;" edge="1" parent="1" source="TAhkKV8d_4ss1AZkdmYo-46" target="TAhkKV8d_4ss1AZkdmYo-50">
          <mxGeometry relative="1" as="geometry" />
        </mxCell>
        <mxCell id="TAhkKV8d_4ss1AZkdmYo-46" value="卷积" style="rounded=0;whiteSpace=wrap;html=1;fillColor=#FFCC99;" vertex="1" parent="1">
          <mxGeometry x="590" y="446" width="80" height="40" as="geometry" />
        </mxCell>
        <mxCell id="TAhkKV8d_4ss1AZkdmYo-57" style="edgeStyle=orthogonalEdgeStyle;rounded=0;orthogonalLoop=1;jettySize=auto;html=1;exitX=1;exitY=0.5;exitDx=0;exitDy=0;entryX=0;entryY=0.75;entryDx=0;entryDy=0;" edge="1" parent="1" source="TAhkKV8d_4ss1AZkdmYo-50" target="TAhkKV8d_4ss1AZkdmYo-36">
          <mxGeometry relative="1" as="geometry">
            <Array as="points">
              <mxPoint x="780" y="520" />
              <mxPoint x="780" y="322" />
            </Array>
          </mxGeometry>
        </mxCell>
        <mxCell id="TAhkKV8d_4ss1AZkdmYo-67" value="G" style="edgeLabel;html=1;align=center;verticalAlign=middle;resizable=0;points=[];" vertex="1" connectable="0" parent="TAhkKV8d_4ss1AZkdmYo-57">
          <mxGeometry x="-0.5397" y="-2" relative="1" as="geometry">
            <mxPoint as="offset" />
          </mxGeometry>
        </mxCell>
        <mxCell id="TAhkKV8d_4ss1AZkdmYo-50" value="Sigmoid" style="rounded=0;whiteSpace=wrap;html=1;fillColor=#FFCC99;" vertex="1" parent="1">
          <mxGeometry x="590" y="500" width="80" height="40" as="geometry" />
        </mxCell>
        <mxCell id="TAhkKV8d_4ss1AZkdmYo-54" style="edgeStyle=orthogonalEdgeStyle;rounded=0;orthogonalLoop=1;jettySize=auto;html=1;exitX=1;exitY=0.25;exitDx=0;exitDy=0;entryX=0;entryY=0.25;entryDx=0;entryDy=0;" edge="1" parent="1" source="TAhkKV8d_4ss1AZkdmYo-32" target="TAhkKV8d_4ss1AZkdmYo-36">
          <mxGeometry relative="1" as="geometry" />
        </mxCell>
        <mxCell id="TAhkKV8d_4ss1AZkdmYo-61" style="edgeStyle=orthogonalEdgeStyle;rounded=0;orthogonalLoop=1;jettySize=auto;html=1;exitX=0.5;exitY=1;exitDx=0;exitDy=0;entryX=0.5;entryY=0;entryDx=0;entryDy=0;" edge="1" parent="1" source="TAhkKV8d_4ss1AZkdmYo-59" target="TAhkKV8d_4ss1AZkdmYo-60">
          <mxGeometry relative="1" as="geometry" />
        </mxCell>
        <mxCell id="TAhkKV8d_4ss1AZkdmYo-59" value="xr=wr*x+br" style="rounded=0;whiteSpace=wrap;html=1;fillColor=#FFCC99;" vertex="1" parent="1">
          <mxGeometry x="835" y="377" width="125" height="62" as="geometry" />
        </mxCell>
        <mxCell id="TAhkKV8d_4ss1AZkdmYo-65" style="edgeStyle=orthogonalEdgeStyle;rounded=0;orthogonalLoop=1;jettySize=auto;html=1;exitX=0.5;exitY=1;exitDx=0;exitDy=0;entryX=0;entryY=0.5;entryDx=0;entryDy=0;" edge="1" parent="1" source="TAhkKV8d_4ss1AZkdmYo-60" target="TAhkKV8d_4ss1AZkdmYo-64">
          <mxGeometry relative="1" as="geometry">
            <Array as="points">
              <mxPoint x="898" y="529" />
              <mxPoint x="1040" y="529" />
              <mxPoint x="1040" y="400" />
            </Array>
          </mxGeometry>
        </mxCell>
        <mxCell id="TAhkKV8d_4ss1AZkdmYo-60" value="" style="shape=orEllipse;perimeter=ellipsePerimeter;whiteSpace=wrap;html=1;backgroundOutline=1;" vertex="1" parent="1">
          <mxGeometry x="882.5" y="479" width="30" height="30" as="geometry" />
        </mxCell>
        <mxCell id="TAhkKV8d_4ss1AZkdmYo-64" value="输出z" style="rounded=0;whiteSpace=wrap;html=1;fillColor=#FFF4C3;" vertex="1" parent="1">
          <mxGeometry x="1060" y="370" width="90" height="60" as="geometry" />
        </mxCell>
        <mxCell id="TAhkKV8d_4ss1AZkdmYo-66" style="edgeStyle=orthogonalEdgeStyle;rounded=0;orthogonalLoop=1;jettySize=auto;html=1;exitX=1;exitY=0.5;exitDx=0;exitDy=0;entryX=0;entryY=0.5;entryDx=0;entryDy=0;" edge="1" parent="1" source="TAhkKV8d_4ss1AZkdmYo-8" target="TAhkKV8d_4ss1AZkdmYo-59">
          <mxGeometry relative="1" as="geometry">
            <Array as="points">
              <mxPoint x="220" y="408" />
              <mxPoint x="220" y="660" />
              <mxPoint x="800" y="660" />
              <mxPoint x="800" y="408" />
            </Array>
          </mxGeometry>
        </mxCell>
      </root>
    </mxGraphModel>
  </diagram>
</mxfile>
